<svg id="e37b5d9e-7de5-4f0f-9817-176679d58b10" data-name="root" xmlns="http://www.w3.org/2000/svg" viewBox="0 0 192 192"><path d="M152,104v8a40,40,0,0,1-40,40H80a40,40,0,0,1-40-40V80A40,40,0,0,1,80,40h8a8,8,0,0,0,8-8h0a8,8,0,0,0-8-8H80A56,56,0,0,0,24,80v32a56,56,0,0,0,56,56h32a56,56,0,0,0,56-56v-8a8,8,0,0,0-8-8h0A8,8,0,0,0,152,104Z"/><path d="M161.725,24.826H127.763c-3.758,0-5.113,2.549-3.012,5.664l2.955,4.382c1.286,1.907,2.652,3.753,4.052,5.571L96,76.2A14,14,0,0,0,115.8,96l35.758-35.758c1.818,1.4,3.664,2.766,5.571,4.052l4.382,2.955c3.115,2.1,5.664.746,5.664-3.012V30.275A5.465,5.465,0,0,0,161.725,24.826Z"/></svg>