<svg id="ad99c63f-8d9b-4eaf-9bcb-c8dacf9481c3" data-name="root" xmlns="http://www.w3.org/2000/svg" viewBox="0 0 192 192"><path d="M140,131H52a12,12,0,0,1-12-12V73A12,12,0,0,1,52,61h88a12,12,0,0,1,12,12v46A12,12,0,0,1,140,131ZM24,73v46a28,28,0,0,0,28,28h88a28,28,0,0,0,28-28V73a28,28,0,0,0-28-28H52A28,28,0,0,0,24,73Z"/><path d="M96,107.031c-7.244,0-17.623-3.689-31.73-11.28-9.795-5.27-17.716-10.469-18.048-10.688A8,8,0,0,1,55.016,71.7c12.21,8.029,33,19.334,40.984,19.334,8,0,28.784-11.305,40.983-19.333a8,8,0,0,1,8.795,13.365c-.332.219-8.253,5.418-18.048,10.688C113.623,103.342,103.244,107.031,96,107.031Z"/></svg>