<svg id="fc155841-a980-4177-9925-5bea66a48920" data-name="root" xmlns="http://www.w3.org/2000/svg" viewBox="0 0 192 192"><path d="M124.947,65.524c.031-.5.053-1.012.053-1.524V48a24,24,0,0,0-24-24H91A24,24,0,0,0,67,48V64c0,.512.022,1.02.053,1.524C46.964,66.634,24,69.99,24,80v52a36,36,0,0,0,36,36h72a36,36,0,0,0,36-36V80C168,69.99,145.036,66.634,124.947,65.524ZM79,64V48A12.013,12.013,0,0,1,91,36h10a12.013,12.013,0,0,1,12,12V64c0,.368-.023.731-.055,1.091C105.274,64.939,101.213,65,96,65s-9.274-.061-16.945.091C79.023,64.731,79,64.368,79,64Z"/></svg>