<svg id="b186d9fe-b92f-433d-94f1-dbb5f770238a" data-name="root" xmlns="http://www.w3.org/2000/svg" viewBox="0 0 192 192"><path d="M163.782,90.384,138.04,109.39a10.339,10.339,0,0,0-3.7,11.5l10.072,31.138A10.34,10.34,0,0,1,128.541,163.6l-26.5-19.064a10.341,10.341,0,0,0-12.075,0l-26.5,19.06a10.339,10.339,0,0,1-15.875-11.576L57.66,120.891a10.338,10.338,0,0,0-3.7-11.5l-25.744-19a10.339,10.339,0,0,1,6.14-18.658H65.987a10.339,10.339,0,0,0,9.809-7.07L86.189,33.474a10.34,10.34,0,0,1,19.618,0L116.2,64.657a10.339,10.339,0,0,0,9.809,7.07h31.632A10.339,10.339,0,0,1,163.782,90.384Z"/></svg>