<svg id="a9c325de-c5ad-4a8a-b34a-faf10a097738" data-name="root" xmlns="http://www.w3.org/2000/svg" viewBox="0 0 192 192"><path d="M117.787,96l47.2-47.2a10.271,10.271,0,0,0,0-14.525l-7.262-7.262a10.271,10.271,0,0,0-14.525,0L96,74.213l-47.2-47.2a10.271,10.271,0,0,0-14.525,0L27.008,34.27a10.271,10.271,0,0,0,0,14.525L74.213,96l-47.2,47.205a10.271,10.271,0,0,0,0,14.525l7.262,7.262a10.271,10.271,0,0,0,14.525,0L96,117.787l47.205,47.2a10.271,10.271,0,0,0,14.525,0l7.262-7.262a10.271,10.271,0,0,0,0-14.525Z" style="fill-rule:evenodd"/></svg>