<svg id="3e82c40a-50ad-45f7-8006-f2c1a40ddbc6" data-name="Layer1" xmlns="http://www.w3.org/2000/svg" width="539.49" height="114.25" viewBox="0 0 539.49 114.25"><title>logo</title><path d="M126.54,86a30.68,30.68,0,0,1-7.79,7.15,38.83,38.83,0,0,1-10.94,5A22.17,22.17,0,0,1,99.3,99,17.57,17.57,0,0,1,92,96.66a15,15,0,0,1-5.2-5.29,16.24,16.24,0,0,1-2.13-7.94A38.62,38.62,0,0,1,85,75.35c.38-2.91.72-5.6,1-8.08q1-8.43,2.08-15.37a38.12,38.12,0,0,0-.22-13.37,7.2,7.2,0,0,0-3-4.72A9.31,9.31,0,0,0,80,32.52a14.88,14.88,0,0,0-5.45,1.07A27.3,27.3,0,0,0,69.79,36Q65.92,38.53,62,41.53t-7.52,6q-3.59,3-6.59,5.71A60,60,0,0,0,43,58.12a1.35,1.35,0,0,0-.43,1V109.6a4,4,0,0,1-1.28,3.22,4.15,4.15,0,0,1-5.56,0,4,4,0,0,1-1.28-3.22V66.13a.47.47,0,0,0-.36-.43.56.56,0,0,0-.65.14Q26.26,72.56,19.75,79T6.09,92.72a3.82,3.82,0,0,1-2.57,1.22A3.07,3.07,0,0,1,1.09,93a3.18,3.18,0,0,1-.72-3.86c.67-1.34,1.34-2.53,2-3.58A240.79,240.79,0,0,0,21,50a34.49,34.49,0,0,0,2.29-7.08,22.76,22.76,0,0,0,.43-6.65,5.94,5.94,0,0,0-2.36-4.5,11.87,11.87,0,0,0-5-2,31.92,31.92,0,0,0-6.08-.42c-2.1,0-4,.07-5.58.07a3.68,3.68,0,0,1-2.71-1A4.19,4.19,0,0,1,.73,26a3.4,3.4,0,0,1,.57-2.51,3.6,3.6,0,0,1,2.5-1.43A60,60,0,0,1,12,21.8a29.56,29.56,0,0,1,7.3,1.14,14.94,14.94,0,0,1,7.36,4.86,13.57,13.57,0,0,1,3.08,7.87,27.23,27.23,0,0,1-.79,8.51,46.36,46.36,0,0,1-2.79,7.93Q23.55,58,20.53,63.55t-6,11a.64.64,0,0,0,.29.93.73.73,0,0,0,1-.07q4.28-4.42,8.5-8.36t9.54-8.65a1,1,0,0,0,.58-1v-53a4,4,0,0,1,1.28-3.22,4.15,4.15,0,0,1,5.56,0,4,4,0,0,1,1.28,3.22V50.4a.48.48,0,0,0,.22.43c.14.09.31,0,.5-.15,1.81-1.52,3.58-3,5.29-4.5s3.51-3,5.37-4.58,3.86-3.22,6-4.93,4.6-3.53,7.37-5.44A34.91,34.91,0,0,1,73.69,28a26.13,26.13,0,0,1,7.37-1.51,14.07,14.07,0,0,1,9.15,2.36,15.14,15.14,0,0,1,5.44,7.22A32,32,0,0,1,97.22,44,64,64,0,0,1,97.3,52q-.22,4.08-.79,8.08c-.38,2.67-.72,5.29-1,7.86q-.44,3.58-1,7.66A52,52,0,0,0,93.94,83q.28,5.58,3.71,7.72t8.44.86a40,40,0,0,0,10-3.79A22.7,22.7,0,0,0,123,82.43a2.43,2.43,0,0,1,1.93-.72,2.81,2.81,0,0,1,1.57.79,2.71,2.71,0,0,1,.78,1.57A2.39,2.39,0,0,1,126.54,86Z" style="fill:#fff"/><path d="M155.3,61.21a2.84,2.84,0,0,1-2.51-1.14,4.16,4.16,0,0,1,0-4.85,2.84,2.84,0,0,1,2.51-1.14h81.22a19.8,19.8,0,0,0,6.51-.93,18.27,18.27,0,0,0,4.29-2.07,9.79,9.79,0,0,0,2.36-2.15,5.42,5.42,0,0,0,.71-1.14A3.66,3.66,0,0,1,252.54,46a4.1,4.1,0,0,1,2.5.07,3.38,3.38,0,0,1,1.86,1.57,3.16,3.16,0,0,1,.07,2.72,21.45,21.45,0,0,0-1.15,1.86,15,15,0,0,1-3.36,3.71,24,24,0,0,1-6.29,3.63,25,25,0,0,1-9.65,1.64H155.3Z" style="fill:#fff"/><path d="M406.32,58a2.33,2.33,0,0,1-.72,2,2.71,2.71,0,0,1-2,.86H381.43q-.75,0-.75.57a98.63,98.63,0,0,1-7,28.24,73.47,73.47,0,0,1-16.14,23.67,2.24,2.24,0,0,1-1.86.93,2.81,2.81,0,0,1-1.71-.71,2.71,2.71,0,0,1-.86-1.72,2.81,2.81,0,0,1,.57-2.08l.14-.14a51.25,51.25,0,0,0,8.23-10.72,72.8,72.8,0,0,0,5.57-12.16A79.62,79.62,0,0,0,371,73.91a100,100,0,0,0,1.43-12.51c0-.38-.2-.57-.62-.57h-35.3q-.72,0-.72.57-2,4.58-4.21,9.15a84.87,84.87,0,0,1-4.94,8.8,60.75,60.75,0,0,1-6.07,7.93,37.25,37.25,0,0,1-7.65,6.44,29,29,0,0,1-5.15,2.5,14.77,14.77,0,0,1-6.44.79,12.65,12.65,0,0,1-6.58-2.72,12.13,12.13,0,0,1-4-5.58,14.31,14.31,0,0,1-.72-6.5,28.52,28.52,0,0,1,1.43-5.79,25.3,25.3,0,0,1,4.08-7.3,31,31,0,0,1,6-5.72,40.18,40.18,0,0,1,7.22-4.15,47.55,47.55,0,0,1,7.86-2.73,60.39,60.39,0,0,1,11.16-1.44c.28,0,.52-.19.71-.57a131.35,131.35,0,0,0,3.29-15.06,99.31,99.31,0,0,0,1.15-15.21A4.16,4.16,0,0,0,328.65,20h-25a2.53,2.53,0,0,1-2.14-.94,2.92,2.92,0,0,1-.65-2,3.64,3.64,0,0,1,.79-2,2.52,2.52,0,0,1,2.14-.93h26.32q5.85,0,8.91,3.43t3.07,9.42a83.12,83.12,0,0,1-1.14,13.5,142.59,142.59,0,0,1-3.15,14.2c-.19.39,0,.57.43.57l33.74-.14a.72.72,0,0,0,.75-.57q0-4.43.07-8.21c0-2.53,0-5.12-.07-7.79V33.63c0-1.43,0-3-.07-4.57s-.06-3.19-.06-4.71a4.51,4.51,0,0,1,1.36-3.57,4.69,4.69,0,0,1,3.51-1.57,5.2,5.2,0,0,1,3.36,1.21,6.49,6.49,0,0,1,2.08,2.79,62.81,62.81,0,0,0,5.43,11.23A94.36,94.36,0,0,0,395,44q3.36,4.23,6.08,7.23c1.81,2,3.09,3.38,3.86,4.15A3,3,0,0,1,406.32,58ZM326.18,61.4c.19-.38.05-.57-.43-.57l-3.86.57a31.85,31.85,0,0,0-3.86.86,36.73,36.73,0,0,0-12.37,5.94,21.88,21.88,0,0,0-7.79,10.51,11.77,11.77,0,0,0-.65,5.93,6,6,0,0,0,2.08,3.72,5.17,5.17,0,0,0,3.93.93A11.82,11.82,0,0,0,308.45,87a40.58,40.58,0,0,0,10.8-11.87A108.47,108.47,0,0,0,326.18,61.4Zm70.65-6.07a.82.82,0,0,0,.71-.5c.19-.33.09-.69-.29-1.07q-3.28-3.57-6.86-7.94a80,80,0,0,1-7-10.22c-.47-.86-.92-1.22-1.33-1.07s-.61.59-.61,1.35c0,3.63,0,6.89.07,9.8s0,5.93-.2,9.08c0,.38.17.57.5.57Z" style="fill:#fff"/><path d="M537.75,44.4,513.44,68.1l5.76,33.49a9.94,9.94,0,0,1,.06,1.33c0,1.75-.8,3.35-2.74,3.35a5.41,5.41,0,0,1-2.68-.8L483.77,89.66l-30.06,15.81a5.63,5.63,0,0,1-2.68.8c-1.94,0-2.82-1.6-2.82-3.35a8.58,8.58,0,0,1,.14-1.33l5.76-33.49L429.73,44.4a5.22,5.22,0,0,1-1.67-3.22c0-2,2.07-2.81,3.75-3.08l33.61-4.89L480.49,2.75C481.1,1.47,482.23,0,483.77,0s2.68,1.47,3.28,2.75l15.07,30.47,33.62,4.88c1.6.27,3.75,1.07,3.75,3.09A5,5,0,0,1,537.75,44.4Z" style="fill:#fff"/></svg>