<svg id="b59c99bb-5bbd-4fbc-9c18-b266a54517de" data-name="Layer 1" xmlns="http://www.w3.org/2000/svg" viewBox="0 0 72 24"><path d="M20.418,19.078c-1.992.576-3.792-.432-3.888-2.473a17.192,17.192,0,0,1,.216-2.711c.216-1.873.6-3.409.312-4.825-.36-1.512-2.136-1.032-3.024-.432a30.407,30.407,0,0,0-4.489,3.72.261.261,0,0,0-.072.168V21a.685.685,0,1,1-1.368,0V13.7c0-.072-.1-.1-.168-.048-1.608,1.513-2.976,2.88-4.584,4.513a.583.583,0,0,1-.84.048c-.385-.408,0-.888.216-1.248a40.931,40.931,0,0,0,3.12-5.977,4.876,4.876,0,0,0,.456-2.3c-.12-1.344-2.112-1.176-3.192-1.152-.768.024-.936-1.128-.144-1.224a7.016,7.016,0,0,1,2.592.144A2.4,2.4,0,0,1,7.313,8.589a5.733,5.733,0,0,1-.6,2.76c-.576,1.3-1.272,2.545-1.944,3.768a.136.136,0,0,0,.216.145c.96-.985,1.848-1.8,3.024-2.857a.2.2,0,0,0,.1-.168v-8.9a.685.685,0,1,1,1.368,0v7.728a.072.072,0,0,0,.12.048C10.841,10.1,11.8,9.117,13.625,7.845a4.355,4.355,0,0,1,2.3-.792,2.342,2.342,0,0,1,2.448,1.608c.552,1.728.168,3.624-.024,5.353a23.645,23.645,0,0,0-.264,2.519,1.459,1.459,0,0,0,2.04,1.441,5.31,5.31,0,0,0,2.832-1.536.424.424,0,0,1,.6.6A6.217,6.217,0,0,1,20.418,19.078Z" style="fill:#c97783"/><path d="M28.385,12.885a.6.6,0,0,1,0-1.2H42.018a2.487,2.487,0,0,0,2.328-1.057.594.594,0,0,1,1.1.432,3.607,3.607,0,0,1-3.432,1.824Z" style="fill:#c97783"/><path d="M70.05,12.813H66.33a.11.11,0,0,0-.12.1,13.64,13.64,0,0,1-3.889,8.713c-.383.433-.983-.143-.647-.6L61.7,21a12.3,12.3,0,0,0,3.12-8.089.1.1,0,0,0-.095-.1H58.793c-.048,0-.12.048-.12.1-.863,2.04-1.944,4.2-3.84,5.425a3.11,3.11,0,0,1-1.944.552,2.1,2.1,0,0,1-1.777-1.392,3.156,3.156,0,0,1,.12-2.064,5.769,5.769,0,0,1,4.225-3.337,8.79,8.79,0,0,1,1.872-.239.161.161,0,0,0,.12-.1,18.474,18.474,0,0,0,.744-5.088.707.707,0,0,0-.719-.72h-4.2c-.647,0-.6-.984.025-.984h4.416a1.909,1.909,0,0,1,2.016,2.16,17.463,17.463,0,0,1-.719,4.656c-.025.048.023.1.071.1l5.665-.023a.124.124,0,0,0,.12-.1c0-.984.024-1.8,0-2.688,0,0,0-1.392-.024-2.376a.835.835,0,0,1,.816-.864,1.015,1.015,0,0,1,.912.672,17.106,17.106,0,0,0,3.7,5.4.576.576,0,0,1,.239.432A.447.447,0,0,1,70.05,12.813Zm-13.057,0a8.329,8.329,0,0,0-1.3.24,4.693,4.693,0,0,0-3.385,2.76c-.5,1.561.529,2.3,1.777,1.392a9.691,9.691,0,0,0,2.976-4.3C57.089,12.861,57.065,12.813,56.993,12.813ZM68.922,11.9a.148.148,0,0,0,.072-.264,17.036,17.036,0,0,1-2.328-3.048c-.168-.288-.336-.192-.336.048,0,1.2.048,2.112-.024,3.168a.087.087,0,0,0,.1.1Z" style="fill:#c97783"/></svg>